<svg id="Layer_1" data-name="Layer 1" xmlns="http://www.w3.org/2000/svg" viewBox="0 0 268.17 294.16"><defs><style>.cls-1{fill:#fefefe;}.cls-2{fill:#0489a8;}.cls-3{fill:#6074b3;}.cls-4{fill:#7070b5;}.cls-5{fill:#6e71b5;}.cls-6{fill:#7f6db7;}.cls-7{fill:#6374b4;}.cls-8{fill:#836cb7;}.cls-9{fill:#1386aa;}.cls-10{fill:#3482af;}.cls-11{fill:#7471b6;}.cls-12{fill:#3b7daf;}.cls-13{fill:#3570be;}.cls-14{fill:#1284ae;}.cls-15{fill:#7670b6;}.cls-16{fill:#4b79b1;}.cls-17{fill:#6873b4;}.cls-18{fill:#6d72b5;}.cls-19{fill:#3b6cc1;}.cls-20{fill:#8b6cb9;}.cls-21{fill:#7a6fb7;}.cls-22{fill:#6b72b5;}.cls-23{fill:#1f84ac;}.cls-24{fill:#5178b2;}.cls-25{fill:#2e74ba;}.cls-26{fill:#4369c4;}.cls-27{fill:#5677b2;}.cls-28{fill:#367eae;}.cls-29{fill:#0e88ac;}.cls-30{fill:#5e75b3;}.cls-31{fill:#317fae;}.cls-32{fill:#585dce;}.cls-33{fill:#6474b4;}.cls-34{fill:#6858d4;}.cls-35{fill:#8c6dba;}.cls-36{fill:#3780af;}.cls-37{fill:#5b77b3;}.cls-38{fill:#3c7eaf;}.cls-39{fill:#457cb1;}.cls-40{fill:#207cb4;}.cls-41{fill:#7752db;}.cls-42{fill:#157eb0;}.cls-43{fill:#4a7bb1;}.cls-44{fill:#217eb4;}.cls-45{fill:#605bd1;}.cls-46{fill:#4b66c7;}.cls-47{fill:#2584ad;}.cls-48{fill:#487cb1;}.cls-49{fill:#2879b8;}.cls-50{fill:#7b71b7;}.cls-51{fill:#1a81b1;}.cls-52{fill:#5676b2;}.cls-53{fill:#2983ad;}.cls-54{fill:#5363cb;}.cls-55{fill:#457eb1;}.cls-56{fill:#2d82ae;}.cls-57{fill:#886db8;}.cls-58{fill:#804fdf;}.cls-59{fill:#1c87ac;}.cls-60{fill:#537bb3;}.cls-61{fill:#128bac;}.cls-62{fill:#7db9cf;}.cls-63{fill:#6f73b5;}</style></defs><title>Untitled-1</title><path class="cls-1" d="M153,300.5q0-71.5-.08-143c0-3,.6-3.59,3.58-3.58q130.5.15,261,0c3,0,3.58.6,3.58,3.58q-.15,143.51,0,287c0,3-.6,3.59-3.58,3.58q-130.5-.15-261,0c-3,0-3.59-.6-3.58-3.58Q153.09,372.5,153,300.5Z" transform="translate(-152.92 -153.92)"/><path class="cls-2" d="M367.93,269.11c-7.18-1.45-9.56-6.6-10.16-13.14-.93-11.4-.56-11.84,10.77-12.39,5.07-.25,10,.06,13.17,4.92,1.55,4.53.14,8.9-.69,13.31-1.26,3.31,0,8.52-6.12,8.15C372.67,269,370.18,270,367.93,269.11Z" transform="translate(-152.92 -153.92)"/><path class="cls-3" d="M381,249c-6.42-7-14.23-3.23-21.59-2.74-1.52.1-1.43,1.57-1.46,2.75l-.21,7c.84-7.43-4.27-7.52-9.45-7.84-9-.55-18-1.53-26.53-4.74,0-3,2.5-2.8,4.27-2.83,8.08-.15,16.17-.47,24.24.34,8.5-.46,16.94.62,25.33,1.61,9.39,1.1,10.48,3.16,8.5,12.75C382,253.74,383.32,250.47,381,249Z" transform="translate(-152.92 -153.92)"/><path class="cls-4" d="M250.91,226.18a20.43,20.43,0,0,1-5.85-5.34c-1.09-2.53,1-2.76,2.44-3a20.89,20.89,0,0,1,8.73,0c2.33,1.88,4.59,2.21,7.75,1.41,11.59-2.92,22.68-.84,33.21,4.64-1.42,1.93-3.58,2.44-5.71,2.43C278,226.29,264.43,227.08,250.91,226.18Z" transform="translate(-152.92 -153.92)"/><path class="cls-5" d="M250.91,226.18c1.36-1.82,3.34-1.14,5.08-1.15,9.3-.06,18.59-.08,27.89,0a53.55,53.55,0,0,0,13.31-1.09,18.52,18.52,0,0,1,6.75,3.09c-2.4,2.63-5.64,2.09-8.69,2.39-2.08.22-4.23-.81-6.24.36l-8.07-2a7.68,7.68,0,0,0-4.9,0c-4,.8-8.05,1.43-12,2.44C258.73,231.65,254.51,230,250.91,226.18Z" transform="translate(-152.92 -153.92)"/><path class="cls-6" d="M235.64,201c2.61,1.85,5.57,3.26,7.66,5.81-1.64,3.22-4.74,2.34-7.42,2.63-2,.21-3.93-.5-5.91-.39-2.77-1.38-5.06-3.66-8.3-4.43V209c-3.63,1.82-7.16,2.63-10.31-.92l-.21-6.08a5.35,5.35,0,0,1,4.13-1.43C222.06,200.71,228.87,199.81,235.64,201Z" transform="translate(-152.92 -153.92)"/><path class="cls-7" d="M350.3,240.91c-8.38-.28-16.66,1.74-25.07,1.11-1.33-.1-2.66,0-3.44,1.38-4.47-1.31-9-2.54-12.9-5.2,0-3,2.43-3,4.4-3.44,2.58-.57,5.17.16,7.76.13C330.52,238.25,340.43,239.48,350.3,240.91Z" transform="translate(-152.92 -153.92)"/><path class="cls-8" d="M235.64,201c-8.1,2.07-16.34.48-24.49,1,0-2.33,0-4.66,0-7,4.09-2.62,8.51-1,12.81-1C227.74,196.56,232.49,197.46,235.64,201Z" transform="translate(-152.92 -153.92)"/><path class="cls-9" d="M212.91,335c-3.36,7.33-6.94,14.51-13.1,20-1.41.61-2.9,1.42-2.93-1.24C198.49,347,201.7,341,205.07,335,207.68,332.07,210.3,331.66,212.91,335Z" transform="translate(-152.92 -153.92)"/><path class="cls-10" d="M325.91,310.78c2.88-7.89,9.2-10.43,16.89-10.84,2-1,4.18.1,6.16-.75l3.7-.35c2.28.13,5-.54,5.32,3-3.88,2.21-8.1,1.19-12.16,1.07-7.45-.23-13.32,2.1-16.79,9.06C327.6,312.59,326,313.51,325.91,310.78Z" transform="translate(-152.92 -153.92)"/><path class="cls-11" d="M213.88,225.25A36.91,36.91,0,0,1,212,213a8.58,8.58,0,0,1,10,0l1.89,10C220.73,224.65,217.05,223.82,213.88,225.25Z" transform="translate(-152.92 -153.92)"/><path class="cls-12" d="M221.56,292.88l.62-3.92c.84-2-.18-4.25.72-6.25a.5.5,0,0,1,0-.71A8.81,8.81,0,0,1,233,282c-.63,4-.4,8.21-1.95,12.09C227.79,294.51,224.47,295.3,221.56,292.88Z" transform="translate(-152.92 -153.92)"/><path class="cls-13" d="M283,334l10.94-6.13c3.24,1,6.93,0,9.93,2.16a20.92,20.92,0,0,1-9.68,7.35c-2.44,0-4.89.35-7.31-.06C284.94,337,282.83,336.74,283,334Z" transform="translate(-152.92 -153.92)"/><path class="cls-14" d="M316.87,307.05c-1.9-.78-1.06-4.32-4.05-4-2.21,3.11-4.86,2.7-7.68,1a12.48,12.48,0,0,1,1.75-7.25c4,1.28,8.13.62,12.18,1.1,2.33,1.71,2.7,4.6,4.08,6.87C322.14,308.42,319.52,307.79,316.87,307.05Z" transform="translate(-152.92 -153.92)"/><path class="cls-15" d="M256.23,217.88c-2.24,1.44-4.77,1-7.24,1.14-1.51.07-3.51-.68-3.93,1.82L238,215.07c-1-2.3.65-3,2.26-3.21,3-.46,6.06-1.18,9.08,0C251.41,214.12,254.52,215.19,256.23,217.88Z" transform="translate(-152.92 -153.92)"/><path class="cls-16" d="M232.81,266c.1,2.68.21,5.35.31,8a5,5,0,0,1-4,1.33,7.72,7.72,0,0,0-6.29,2.82c-1.18-4-.63-8.08-1-12.12C225.52,264.39,229.15,263.22,232.81,266Z" transform="translate(-152.92 -153.92)"/><path class="cls-17" d="M321.05,234.89c-1.71,1.94-4,1-6,1.07-2.33.12-4.6.1-6.15,2.24l-11-5c-.16-2.21,1.62-2.37,3-2.49,3.77-.32,7.58-.92,11.34.18C315.05,232.47,318.45,232.79,321.05,234.89Z" transform="translate(-152.92 -153.92)"/><path class="cls-18" d="M213.88,225.25c2.52-4.23,6.62-1.6,10-2.28.64,2.68,1.27,5.36,1.91,8-3.6,2.29-7.19,2.06-10.78,0C213.87,229.22,213.92,227.23,213.88,225.25Z" transform="translate(-152.92 -153.92)"/><path class="cls-19" d="M283,334c1.12,2.49,3.38,1.89,5.41,2.07s4.25-.86,5.77,1.31c-3.39,2.73-7.73,3.53-11.46,5.58-2.7-.7-6.23.78-7.74-3A21.13,21.13,0,0,1,283,334Z" transform="translate(-152.92 -153.92)"/><path class="cls-20" d="M302.88,257c-2.15-.3-5-.26-4.81-3.87.18-3.1,1.46-5.48,5.16-5.29,3.19.16,5.83,2,6,4.87C309.41,256.24,306.27,257.05,302.88,257Z" transform="translate(-152.92 -153.92)"/><path class="cls-21" d="M249.31,211.88a22,22,0,0,1-7.64,1.15c-1.59-.12-3.41-.33-3.7,2l-8-6c2.11-2,4.72-.85,7.1-1,2.15-.16,4.31,0,6.23-1.22A20.86,20.86,0,0,1,249.31,211.88Z" transform="translate(-152.92 -153.92)"/><path class="cls-22" d="M312.2,230.92c-4.6,1.87-9.83-.19-14.33,2.31L289,229.77c.39-2.05,2-1.8,3.43-1.75a43.61,43.61,0,0,0,11.5-1A28.07,28.07,0,0,1,312.2,230.92Z" transform="translate(-152.92 -153.92)"/><path class="cls-23" d="M219.08,323.14c-1.86,3.25-2.5,7.1-5,10-2.3-1-5.19-.19-7.2-2.2q2.66-5.46,5.3-10.91C215.08,319.68,218.11,319.12,219.08,323.14Z" transform="translate(-152.92 -153.92)"/><path class="cls-24" d="M232.81,266l-10.92.06c-1.22-2.21-.83-4.65-1-7a9.78,9.78,0,0,1,10.94,0Q232.33,262.5,232.81,266Z" transform="translate(-152.92 -153.92)"/><path class="cls-25" d="M303.85,330c-3.3-.74-7.34,1.89-9.93-2.16l7-7.07c2.37,1.11,5.57.38,7.13,3.24C307.89,326.87,305.65,328.28,303.85,330Z" transform="translate(-152.92 -153.92)"/><path class="cls-26" d="M275,339.93c2.17,2.06,5.86.19,7.74,3L275.83,349c-2.67,1.71-5,1-7.08-1.06A18,18,0,0,1,275,339.93Z" transform="translate(-152.92 -153.92)"/><path class="cls-27" d="M231.84,259l-10.94,0c-1.12-1.49-.92-3.24-1-4.94,2.47-3.18,5.85-3.51,10.84-1.07Z" transform="translate(-152.92 -153.92)"/><path class="cls-28" d="M221.56,292.88c3.13.69,6.56-1,9.5,1.21-.47,2.37-.63,4.83-2.06,6.91-3.05.48-6.11,1.06-8.87-1Z" transform="translate(-152.92 -153.92)"/><path class="cls-29" d="M319.07,297.85c-4.2,1.17-8.47,3.16-12.18-1.1C311,289.75,313.76,290,319.07,297.85Z" transform="translate(-152.92 -153.92)"/><path class="cls-30" d="M219,249.08c-1.13-1.44-1-3.16-1-4.84-.94-2.23.54-3,2.23-3.4,2.76-.61,5.53-.74,8,1.16-.08,2.18,2,3.74,1.7,6C226.36,250.3,222.63,249.42,219,249.08Z" transform="translate(-152.92 -153.92)"/><path class="cls-31" d="M220.13,300c2.94.43,6.1-1,8.87,1a18.48,18.48,0,0,1-2.78,7.36c-2.82.05-5.74.69-8.22-1.36Z" transform="translate(-152.92 -153.92)"/><path class="cls-32" d="M255,365a22.06,22.06,0,0,1,7.09-5.75c2.46.31,5.8-2.37,7.07,2.05-2.33,3.1-6.17,4.26-8.86,6.9C257.91,368.06,255.65,367.81,255,365Z" transform="translate(-152.92 -153.92)"/><path class="cls-33" d="M228.08,242c-2.32,0-4.64,0-7,0-1.65,0-3,.28-3.2,2.25-1-1.22-1-2.69-.94-4.15-.23-5.34,3.69-7,9.9-4.09A12.19,12.19,0,0,1,228.08,242Z" transform="translate(-152.92 -153.92)"/><path class="cls-34" d="M254.91,373c-1.17,3.36-3.35,6.74.29,9.95-1.16,1.57-2.57,2.16-4.4,1.14-3.77-4.16-4.14-8.53-.83-13.13A5.15,5.15,0,0,1,254.91,373Z" transform="translate(-152.92 -153.92)"/><path class="cls-17" d="M226.87,236c-2,0-4-.11-6,.06-2.36.21-4.15,1.2-3.94,4-1.15-2.92-2.21-5.87-2-9.09h10.78C226.12,232.67,226.5,234.34,226.87,236Z" transform="translate(-152.92 -153.92)"/><path class="cls-35" d="M278.88,354.78c2.5.82,5.24,1.45,5.36,4.12.14,3.06-2.46,4.6-5.15,5.05a3,3,0,0,1-3.56-3.21C275.66,358.3,276.38,355.9,278.88,354.78Z" transform="translate(-152.92 -153.92)"/><path class="cls-36" d="M358,301.88c-1.06-2.25-3.66-1.83-5.32-3a33.38,33.38,0,0,0,11-6c1.74-.24,4-2.05,4.54,1.45C365.22,297.44,362.54,300.93,358,301.88Z" transform="translate(-152.92 -153.92)"/><path class="cls-37" d="M219,249.08c3.42-2.26,7.24-.54,10.83-1.08.34,1.67.67,3.34,1,5-3.6.53-7.41-1.19-10.84,1.07C218.84,252.57,219,250.8,219,249.08Z" transform="translate(-152.92 -153.92)"/><path class="cls-38" d="M368.16,294.31c-1.09-1.83-3-1.13-4.54-1.45q3.27-4.92,6.55-9.85c2-1,4-2.15,4.93,1.16C372.71,287.5,371.71,291.78,368.16,294.31Z" transform="translate(-152.92 -153.92)"/><path class="cls-39" d="M375.1,284.17c-1.3-1.85-3.25-.94-4.93-1.16l3.44-9.15c2.64-1.09,5.07-1.66,5.51,2.37A18.11,18.11,0,0,1,375.1,284.17Z" transform="translate(-152.92 -153.92)"/><path class="cls-40" d="M311.8,310c.31,2.85-1.47,5.24-1.72,8-2.63,1.43-5.24,2.76-7.1-1,.59-2,1.19-4,1.79-6A7.71,7.71,0,0,1,311.8,310Z" transform="translate(-152.92 -153.92)"/><path class="cls-41" d="M250.8,384.08l4.4-1.14,6.78,9.14c.19,1.64-.46,2.37-2.14,2C255.39,392,253.11,388,250.8,384.08Z" transform="translate(-152.92 -153.92)"/><path class="cls-42" d="M311.8,310c-2.2,1.46-4.65.88-7,.89.12-2.31.24-4.61.37-6.92,2.57-.19,5.27.59,7.68-1Z" transform="translate(-152.92 -153.92)"/><path class="cls-43" d="M379.12,276.23c-1-2.65-3.43-2.14-5.51-2.37.17-.62.33-1.24.5-1.86.77-.79,0-2,.77-2.78,5.6.33,3.1-5,5.1-7.23l.59.38c1.27,1.7,2.66,3.38,1.46,5.71C380.5,270.6,381.41,274,379.12,276.23Z" transform="translate(-152.92 -153.92)"/><path class="cls-44" d="M325.91,310.78c.67,1.35,1.93,1.19,3.12,1.23-1.19,3.28-2.37,6.56-3.7,10.24-3.17-2.89-3.61-7-5.57-10.2,1.66-.92,3.54-.95,5.35-1.26A2,2,0,0,0,325.91,310.78Z" transform="translate(-152.92 -153.92)"/><path class="cls-45" d="M254.91,373c-1.73-.46-3.59-.63-4.94-2a12.6,12.6,0,0,1,5-6c1.55,1.42,4.07,1.24,5.3,3.2Z" transform="translate(-152.92 -153.92)"/><path class="cls-46" d="M268.75,347.93l7.08,1.06c-.7,2.37-2.32,4.15-3.81,6-4.17,1.64-4.87,1.31-5.17-2.43A7.22,7.22,0,0,1,268.75,347.93Z" transform="translate(-152.92 -153.92)"/><path class="cls-47" d="M219.08,323.14c-1.62-2.58-4.81-1.64-6.93-3.1l2.09-4c2.67-1.72,5.33-2.14,8,.06C221.17,318.43,220.12,320.78,219.08,323.14Z" transform="translate(-152.92 -153.92)"/><path class="cls-48" d="M222.84,278.15c-.22-3.12,1.09-4.54,4.35-4.19a55.81,55.81,0,0,0,5.93,0,8.4,8.4,0,0,1,0,6.29c-3.33-1.19-7.15-.12-10.3-2.2Z" transform="translate(-152.92 -153.92)"/><path class="cls-49" d="M303,317c2.12,2,4.74.64,7.1,1,.45,2.39-.59,4.27-2.06,6-1.84-2.25-6.16.94-7.13-3.24C301.59,319.49,302.28,318.22,303,317Z" transform="translate(-152.92 -153.92)"/><path class="cls-50" d="M222,213H212a7.17,7.17,0,0,1-.63-4.92c3.31,1.79,6.88.55,10.31.92C221.76,210.33,221.86,211.67,222,213Z" transform="translate(-152.92 -153.92)"/><path class="cls-51" d="M325.11,310.79c-1.4,2-3.22,2.3-5.35,1.26q-1.45-2.49-2.89-5c2.08-.82,4.59-.48,6.28-2.33A9.5,9.5,0,0,1,325.11,310.79Z" transform="translate(-152.92 -153.92)"/><path class="cls-52" d="M381,249c5,.14,2.12,4.15,3.1,6.27-.1,1.6-.21,3.19-.32,4.78-.56,2-1.3,3.61-3.76,2l-.07,0Z" transform="translate(-152.92 -153.92)"/><path class="cls-53" d="M222.21,316.07l-8-.06,1.83-4c4.14-3.49,7.15-3.08,8,1.09Z" transform="translate(-152.92 -153.92)"/><path class="cls-54" d="M266.85,352.57c.48,3.47,3.2,2.14,5.17,2.43-.31,2.39-.54,4.81-2.89,6.25-1.79-2.61-5.09-.07-7.07-2.05C264.78,357.8,265.88,355.23,266.85,352.57Z" transform="translate(-152.92 -153.92)"/><path class="cls-55" d="M222.84,278.09c2.25,0,4.5,0,6.76-.09,1.72-.05,3.26.12,3.54,2.29,0,.57-.09,1.14-.13,1.71H222.9Z" transform="translate(-152.92 -153.92)"/><path class="cls-56" d="M224,313.08c-2.14-4.09-5.15-1.87-8-1.09a10.59,10.59,0,0,1,1.93-5c2.73.5,5.83-1.19,8.22,1.36Z" transform="translate(-152.92 -153.92)"/><path class="cls-57" d="M224,194c-4.14,1.94-8.55.58-12.81,1C214.77,190.09,216.49,190,224,194Z" transform="translate(-152.92 -153.92)"/><path class="cls-58" d="M259.84,394.08a3.58,3.58,0,0,0,2.14-2,27,27,0,0,1,8.47,7A17.75,17.75,0,0,1,259.84,394.08Z" transform="translate(-152.92 -153.92)"/><path class="cls-59" d="M206.85,331c2.38.82,5.79-1.76,7.2,2.2L212.91,335a7.82,7.82,0,0,0-7.84,0C205.51,333.57,205.61,332,206.85,331Z" transform="translate(-152.92 -153.92)"/><path class="cls-60" d="M380.05,262c1.77.33,2.8-.77,3.76-2a19.07,19.07,0,0,1-1.78,8C382.66,265.64,379.37,264.47,380.05,262Z" transform="translate(-152.92 -153.92)"/><path class="cls-61" d="M196.88,353.76c.61,1.29,1.78,1.23,2.93,1.24a4,4,0,0,1-4.48,3C195.73,356.44,195.75,355,196.88,353.76Z" transform="translate(-152.92 -153.92)"/><path class="cls-62" d="M374.88,269.22c.18,1,.26,2.07-.77,2.78-.72-3.83-4.76-.57-6.18-2.89Z" transform="translate(-152.92 -153.92)"/><path class="cls-36" d="M349,299.19c-1.9,1.5-4.09.57-6.15.75C344.76,298.9,346.87,299.11,349,299.19Z" transform="translate(-152.92 -153.92)"/><path class="cls-55" d="M222.9,282.71c-.09,2.1.81,4.31-.72,6.25C222.18,286.85,221.93,284.71,222.9,282.71Z" transform="translate(-152.92 -153.92)"/><path class="cls-63" d="M276,227.84a3.71,3.71,0,0,1,4.9,0Z" transform="translate(-152.92 -153.92)"/></svg>