<?xml version="1.0" encoding="UTF-8" standalone="no"?>
<svg width="378px" height="188px" viewBox="0 0 378 188" version="1.1" xmlns="http://www.w3.org/2000/svg" xmlns:xlink="http://www.w3.org/1999/xlink">
    <!-- Generator: sketchtool 41.2 (35397) - http://www.bohemiancoding.com/sketch -->
    <title>A2F46EC7-7D11-4EE7-8386-FA1ED9263D5E</title>
    <desc>Created with sketchtool.</desc>
    <defs></defs>
    <g id="Zeplin-Export" stroke="none" stroke-width="1" fill="none" fill-rule="evenodd">
        <g id="Assets" transform="translate(-904.000000, -1861.000000)" fill="#4D4D4F">
            <g id="logo-bmd" transform="translate(904.000000, 1861.000000)">
                <path d="M373.6702,63.6495 L341.5672,51.8955 L345.3462,41.5765 C346.5052,38.4105 344.8782,34.9035 341.7122,33.7445 L318.2852,25.1675 L321.2682,8.7205 C321.8712,5.4025 319.6682,2.2255 316.3512,1.6245 L307.9422,0.0985 C304.6242,-0.5025 301.4482,1.6985 300.8462,5.0165 L297.5772,23.0365 C297.5722,23.0655 297.5682,23.0935 297.5642,23.1225 C297.4222,23.3835 297.2972,23.6575 297.1922,23.9445 L291.3152,39.9955 L279.1412,73.2445 C277.9812,76.4115 279.6092,79.9175 282.7742,81.0765 L357.2982,108.3635 C360.4642,109.5225 363.9702,107.8955 365.1302,104.7295 L377.3032,71.4805 C378.4632,68.3145 376.8362,64.8085 373.6702,63.6495" id="Fill-1"></path>
                <path d="M267.984,165.7686 L264.321,165.7686 L264.321,149.8966 C264.321,146.5246 261.588,143.7916 258.216,143.7916 L236.239,143.7916 C232.867,143.7916 230.134,146.5246 230.134,149.8966 L230.134,171.8736 L230.134,181.6406 C230.134,185.0126 232.867,187.7456 236.239,187.7456 L258.216,187.7456 L267.984,187.7456 C271.355,187.7456 274.089,185.0126 274.089,181.6406 L274.089,171.8736 C274.089,168.5026 271.355,165.7686 267.984,165.7686" id="Fill-4"></path>
                <path d="M71.6544,165.7686 L67.9914,165.7686 L67.9914,149.8966 C67.9914,146.5246 65.2584,143.7916 61.8864,143.7916 L39.9094,143.7916 C36.5374,143.7916 33.8054,146.5246 33.8054,149.8966 L33.8054,171.8736 L33.8054,181.6406 C33.8054,185.0126 36.5374,187.7456 39.9094,187.7456 L61.8864,187.7456 L71.6544,187.7456 C75.0254,187.7456 77.7594,185.0126 77.7594,181.6406 L77.7594,171.8736 C77.7594,168.5026 75.0254,165.7686 71.6544,165.7686" id="Fill-6"></path>
                <path d="M8.8304,11.7508 L33.8674,36.7878 C34.8214,37.7418 34.8214,39.2878 33.8674,40.2408 L29.2054,44.9028 C28.2524,45.8568 26.7054,45.8568 25.7524,44.9028 L0.7154,19.8668 C-0.2386,18.9128 -0.2386,17.3668 0.7154,16.4128 L5.3774,11.7508 C6.3304,10.7978 7.8764,10.7978 8.8304,11.7508" id="Fill-8"></path>
                <path d="M276.948,50.6213 C276.912,50.8843 276.865,51.1423 276.804,51.3953 C276.742,51.6493 276.659,51.9113 276.554,52.1823 C276.449,52.4533 276.327,52.7553 276.187,53.0873 C275.102,55.7983 274.093,58.4173 273.157,60.9443 C272.221,63.4713 271.295,66.0243 270.377,68.6033 C269.459,71.1823 268.527,73.8543 267.583,76.6173 C266.638,79.3803 265.616,82.3533 264.514,85.5353 C264.549,85.6233 264.557,85.6933 264.541,85.7463 C264.523,85.7983 264.514,85.8683 264.514,85.9553 C264.514,86.3403 264.439,86.7033 264.291,87.0433 C264.142,87.3843 263.924,87.6863 263.635,87.9493 C263.347,88.2113 262.98,88.4163 262.534,88.5653 C262.088,88.7133 261.567,88.7883 260.973,88.7883 C260.501,88.7883 260.116,88.7133 259.819,88.5653 C259.521,88.4163 259.281,88.2243 259.098,87.9883 C258.914,87.7523 258.765,87.4853 258.651,87.1883 C258.538,86.8913 258.446,86.5943 258.376,86.2963 L258.376,86.3223 C257.991,85.0993 257.606,83.9833 257.222,82.9783 C256.837,81.9723 256.443,80.9273 256.041,79.8433 C255.412,78.0953 254.777,76.2723 254.14,74.3743 C253.501,72.4773 252.85,70.6363 252.185,68.8523 C251.818,69.8843 251.415,71.0823 250.979,72.4463 C250.541,73.8103 250.078,75.2403 249.588,76.7353 C249.099,78.2303 248.592,79.7383 248.067,81.2603 C247.542,82.7813 247.027,84.2243 246.519,85.5873 C246.554,85.7463 246.572,85.9033 246.572,86.0603 L246.572,86.3753 C246.572,86.7773 246.48,87.1263 246.297,87.4243 C246.113,87.7223 245.868,87.9713 245.562,88.1713 C245.255,88.3733 244.902,88.5263 244.5,88.6313 C244.097,88.7363 243.686,88.7883 243.267,88.7883 C242.672,88.7883 242.191,88.6703 241.824,88.4343 C241.457,88.1983 241.164,87.9053 240.945,87.5553 C240.726,87.2063 240.565,86.8343 240.46,86.4413 C240.355,86.0473 240.277,85.6933 240.224,85.3783 C239.559,83.5593 238.868,81.6533 238.151,79.6603 C237.434,77.6663 236.704,75.6683 235.961,73.6653 C235.218,71.6643 234.483,69.6833 233.758,67.7253 C233.032,65.7663 232.341,63.8993 231.685,62.1243 C231.029,60.3493 230.413,58.7003 229.837,57.1803 C229.259,55.6583 228.752,54.3293 228.315,53.1923 C228.088,52.6153 227.882,52.0213 227.698,51.4083 C227.515,50.7973 227.422,50.2193 227.422,49.6773 C227.422,47.7713 228.49,46.8183 230.623,46.8183 C230.868,46.8183 231.108,46.8403 231.345,46.8833 C231.58,46.9273 231.817,47.0373 232.052,47.2113 C232.289,47.3863 232.516,47.6353 232.735,47.9593 C232.953,48.2833 233.168,48.7333 233.377,49.3103 C234.741,53.1223 235.939,56.4893 236.971,59.4093 C238.003,62.3303 238.916,64.9273 239.712,67.1993 C240.508,69.4733 241.198,71.4843 241.784,73.2333 C242.37,74.9823 242.9,76.5813 243.372,78.0333 C243.861,76.6003 244.325,75.2443 244.762,73.9673 C245.199,72.6913 245.627,71.4363 246.047,70.2033 C246.467,68.9703 246.895,67.7373 247.332,66.5043 C247.769,65.2713 248.241,63.9823 248.749,62.6353 C248.609,62.3733 248.448,61.9973 248.264,61.5073 C248.08,61.0183 247.883,60.4763 247.674,59.8813 C247.464,59.2863 247.245,58.6653 247.018,58.0193 C246.79,57.3723 246.567,56.7473 246.349,56.1433 C246.13,55.5403 245.929,54.9983 245.746,54.5173 C245.562,54.0363 245.4,53.6563 245.26,53.3753 C244.946,52.8163 244.674,52.2473 244.447,51.6713 C244.22,51.0943 244.106,50.5783 244.106,50.1233 C244.106,48.9863 244.342,48.1783 244.814,47.6973 C245.286,47.2153 246.1,46.9753 247.254,46.9753 C247.639,46.9753 247.984,47.0633 248.29,47.2373 C248.596,47.4133 248.897,47.7493 249.195,48.2483 C249.492,48.7453 249.82,49.4323 250.178,50.3063 C250.537,51.1813 250.979,52.3173 251.503,53.7173 C251.626,54.0143 251.743,54.3983 251.857,54.8703 C251.971,55.3433 252.089,55.7363 252.212,56.0523 C252.386,55.6843 252.566,55.2473 252.75,54.7403 C252.933,54.2333 253.117,53.7033 253.3,53.1523 C253.484,52.6023 253.659,52.0473 253.825,51.4873 C253.991,50.9273 254.144,50.4033 254.284,49.9133 C254.354,49.5813 254.454,49.2313 254.586,48.8643 C254.717,48.4973 254.9,48.1603 255.136,47.8543 C255.373,47.5483 255.678,47.2953 256.054,47.0933 C256.431,46.8923 256.916,46.7923 257.51,46.7923 C258.403,46.7923 259.11,47.0763 259.636,47.6443 C260.16,48.2133 260.422,48.9693 260.422,49.9133 C260.422,50.4033 260.317,50.9153 260.107,51.4483 C259.897,51.9813 259.652,52.5193 259.373,53.0613 C258.621,54.6003 257.93,56.0863 257.3,57.5203 C256.671,58.9543 256.05,60.4583 255.438,62.0323 C255.84,63.0813 256.238,64.1393 256.632,65.2063 C257.025,66.2733 257.444,67.4363 257.891,68.6943 C258.337,69.9543 258.83,71.3533 259.373,72.8913 C259.914,74.4303 260.535,76.1973 261.235,78.1913 C262.039,75.9003 262.809,73.6133 263.544,71.3313 C264.278,69.0493 265.017,66.7663 265.76,64.4853 C266.503,62.2023 267.259,59.9293 268.029,57.6653 C268.799,55.4003 269.62,53.1403 270.495,50.8843 L270.495,50.9103 C270.6,50.3853 270.735,49.8783 270.901,49.3883 C271.068,48.8993 271.282,48.4703 271.544,48.1033 C271.806,47.7363 272.134,47.4433 272.528,47.2253 C272.921,47.0063 273.398,46.8973 273.957,46.8973 C274.954,46.8973 275.71,47.1503 276.226,47.6573 C276.742,48.1643 277,48.8643 277,49.7563 C277,50.0713 276.983,50.3593 276.948,50.6213 M218.226,61.7563 C217.736,59.8773 216.989,58.2203 215.983,56.7863 C214.978,55.3523 213.71,54.2153 212.18,53.3753 C210.649,52.5363 208.835,52.1173 206.737,52.1173 C204.76,52.1173 203.003,52.4933 201.464,53.2453 C199.925,53.9963 198.627,55.0543 197.569,56.4193 C196.51,57.7823 195.706,59.4223 195.155,61.3373 C194.605,63.2523 194.329,65.3813 194.329,67.7253 C194.329,69.0363 194.451,70.3343 194.697,71.6193 C194.941,72.9053 195.304,74.1293 195.785,75.2923 C196.266,76.4553 196.861,77.5303 197.569,78.5193 C198.277,79.5073 199.09,80.3643 200.008,81.0893 C200.926,81.8153 201.949,82.3833 203.077,82.7943 C204.205,83.2053 205.426,83.4113 206.737,83.4113 C208.118,83.4113 209.377,83.2053 210.514,82.7943 C211.65,82.3833 212.674,81.8153 213.583,81.0893 C214.492,80.3643 215.284,79.5073 215.957,78.5193 C216.63,77.5303 217.19,76.4553 217.636,75.2923 C218.082,74.1293 218.414,72.9053 218.633,71.6193 C218.851,70.3343 218.961,69.0363 218.961,67.7253 C218.961,65.6263 218.715,63.6373 218.226,61.7563 M223.682,76.0003 C222.826,78.5633 221.601,80.7883 220.009,82.6763 C218.419,84.5653 216.495,86.0513 214.239,87.1363 C211.983,88.2203 209.456,88.7613 206.658,88.7613 C204.805,88.7613 203.064,88.5173 201.438,88.0273 C199.812,87.5383 198.321,86.8383 196.966,85.9293 C195.61,85.0203 194.399,83.9313 193.332,82.6633 C192.266,81.3953 191.36,79.9833 190.618,78.4273 C189.874,76.8703 189.31,75.1913 188.925,73.3903 C188.541,71.5893 188.349,69.7013 188.349,67.7253 C188.349,64.6113 188.79,61.7703 189.673,59.1993 C190.556,56.6283 191.806,54.4163 193.425,52.5623 C195.042,50.7093 196.992,49.2713 199.274,48.2483 C201.556,47.2253 204.087,46.7133 206.868,46.7133 C209.806,46.7133 212.398,47.2253 214.645,48.2483 C216.892,49.2713 218.781,50.7093 220.312,52.5623 C221.842,54.4163 223,56.6283 223.787,59.1993 C224.574,61.7703 224.967,64.6113 224.967,67.7253 C224.967,70.6803 224.539,73.4383 223.682,76.0003 M172.594,68.2753 C173.45,67.2083 174.041,65.9843 174.364,64.6033 C174.688,63.2213 174.85,61.8053 174.85,60.3533 C174.85,59.0773 174.648,57.9973 174.246,57.1143 C173.844,56.2313 173.311,55.5013 172.646,54.9233 C171.981,54.3463 171.23,53.8923 170.39,53.5593 C169.551,53.2273 168.698,52.9823 167.833,52.8243 C166.968,52.6673 166.119,52.5713 165.289,52.5363 C164.458,52.5013 163.728,52.4843 163.098,52.4843 C162.206,52.4843 161.301,52.4973 160.383,52.5233 C159.465,52.5503 158.472,52.5713 157.406,52.5893 C157.371,53.2543 157.349,53.8573 157.341,54.3983 C157.332,54.9413 157.322,55.4703 157.314,55.9863 C157.305,56.5023 157.301,57.0263 157.301,57.5593 L157.301,59.3563 C157.301,60.5463 157.305,61.6513 157.314,62.6743 C157.322,63.6973 157.336,64.6953 157.353,65.6653 C157.371,66.6363 157.393,67.6113 157.419,68.5893 C157.446,69.5693 157.485,70.5923 157.537,71.6593 C157.992,71.6773 158.525,71.6943 159.137,71.7113 C159.749,71.7293 160.335,71.7473 160.895,71.7633 C161.454,71.7823 161.952,71.7943 162.39,71.8033 C162.827,71.8123 163.107,71.8163 163.229,71.8163 C165.59,71.8163 167.527,71.4933 169.04,70.8463 C170.552,70.1993 171.737,69.3423 172.594,68.2753 M185.146,85.2733 C184.717,85.9553 184.114,86.5553 183.336,87.0703 C182.557,87.5863 181.617,87.9973 180.516,88.3033 C179.414,88.6083 178.19,88.7613 176.843,88.7613 C175.602,88.7613 174.478,88.5823 173.473,88.2243 C172.467,87.8663 171.567,87.3843 170.771,86.7813 C169.975,86.1783 169.271,85.4873 168.659,84.7093 C168.047,83.9313 167.522,83.1183 167.085,82.2693 C166.648,81.4213 166.289,80.5783 166.01,79.7383 C165.73,78.8993 165.512,78.1113 165.354,77.3773 L164.514,77.3773 L163.439,77.3773 C163.072,77.3773 162.709,77.3733 162.35,77.3643 C161.992,77.3563 161.699,77.3513 161.472,77.3513 C160.964,77.3343 160.339,77.3213 159.597,77.3123 C158.853,77.3033 158.176,77.2993 157.563,77.2993 L157.563,81.1283 C157.598,81.9513 157.703,82.7503 157.878,83.5293 C158.053,84.3073 158.141,85.1073 158.141,85.9293 C158.141,86.4363 158.04,86.8643 157.839,87.2143 C157.638,87.5643 157.38,87.8573 157.065,88.0933 C156.75,88.3293 156.409,88.4993 156.042,88.6043 C155.675,88.7093 155.325,88.7613 154.992,88.7613 C154.468,88.7613 153.987,88.6703 153.55,88.4873 C153.113,88.3033 152.737,88.0493 152.422,87.7263 C152.107,87.4023 151.858,87.0173 151.674,86.5713 C151.491,86.1253 151.399,85.6323 151.399,85.0893 C151.399,84.7053 151.416,84.3293 151.451,83.9623 C151.486,83.5953 151.521,83.2533 151.556,82.9393 L151.556,76.2243 L151.556,70.4913 L151.556,65.4943 L151.556,60.9703 C151.556,59.5093 151.56,58.0753 151.57,56.6683 C151.578,55.2603 151.583,53.8223 151.583,52.3523 C151.495,52.1083 151.412,51.7673 151.333,51.3293 C151.255,50.8923 151.215,50.4823 151.215,50.0973 C151.215,49.7293 151.272,49.3623 151.386,48.9953 C151.5,48.6283 151.674,48.3003 151.911,48.0113 C152.146,47.7233 152.439,47.4913 152.789,47.3163 C153.139,47.1413 153.541,47.0543 153.996,47.0543 C154.73,47.0543 155.474,47.0973 156.225,47.1853 C156.977,47.2733 157.826,47.3163 158.77,47.3163 C159.557,47.3163 160.344,47.2773 161.131,47.1983 C161.917,47.1203 162.757,47.0723 163.649,47.0543 C166.289,47.0543 168.681,47.3163 170.823,47.8413 C172.965,48.3653 174.793,49.1783 176.306,50.2803 C177.818,51.3823 178.985,52.7853 179.808,54.4913 C180.629,56.1963 181.04,58.2283 181.04,60.5893 C181.04,62.8283 180.73,64.8173 180.109,66.5573 C179.488,68.2973 178.693,69.8143 177.722,71.1083 C176.752,72.4033 175.667,73.4823 174.469,74.3473 C173.272,75.2133 172.104,75.8743 170.967,76.3283 C171.125,77.2723 171.374,78.1603 171.715,78.9903 C172.056,79.8213 172.493,80.5513 173.027,81.1813 C173.56,81.8113 174.185,82.3083 174.902,82.6763 C175.619,83.0433 176.424,83.2273 177.315,83.2273 C177.98,83.2273 178.588,83.1223 179.138,82.9123 C179.689,82.7023 180.166,82.2923 180.569,81.6793 C180.813,81.3303 181.11,81.0193 181.46,80.7483 C181.81,80.4773 182.256,80.3413 182.798,80.3413 C183.742,80.3413 184.477,80.6043 185.001,81.1283 C185.526,81.6533 185.788,82.3183 185.788,83.1223 C185.788,83.8743 185.574,84.5913 185.146,85.2733 M134.044,68.2753 C134.901,67.2083 135.491,65.9843 135.815,64.6033 C136.138,63.2213 136.3,61.8053 136.3,60.3533 C136.3,59.0773 136.099,57.9973 135.697,57.1143 C135.295,56.2313 134.761,55.5013 134.097,54.9233 C133.432,54.3463 132.68,53.8923 131.841,53.5593 C131.001,53.2273 130.149,52.9823 129.283,52.8243 C128.417,52.6673 127.569,52.5713 126.739,52.5363 C125.908,52.5013 125.178,52.4843 124.548,52.4843 C123.657,52.4843 122.752,52.4973 121.834,52.5233 C120.915,52.5503 119.923,52.5713 118.856,52.5893 C118.821,53.2543 118.8,53.8573 118.79,54.3983 C118.781,54.9413 118.773,55.4703 118.764,55.9863 C118.755,56.5023 118.751,57.0263 118.751,57.5593 L118.751,59.3563 C118.751,60.5463 118.755,61.6513 118.764,62.6743 C118.773,63.6973 118.786,64.6953 118.804,65.6653 C118.821,66.6363 118.843,67.6113 118.869,68.5893 C118.895,69.5693 118.935,70.5923 118.988,71.6593 C119.442,71.6773 119.975,71.6943 120.588,71.7113 C121.199,71.7293 121.785,71.7473 122.345,71.7633 C122.904,71.7823 123.403,71.7943 123.84,71.8033 C124.277,71.8123 124.557,71.8163 124.68,71.8163 C127.04,71.8163 128.977,71.4933 130.49,70.8463 C132.003,70.1993 133.187,69.3423 134.044,68.2753 M146.596,85.2733 C146.167,85.9553 145.564,86.5553 144.786,87.0703 C144.008,87.5863 143.068,87.9973 141.966,88.3033 C140.864,88.6083 139.64,88.7613 138.294,88.7613 C137.052,88.7613 135.928,88.5823 134.923,88.2243 C133.917,87.8663 133.016,87.3843 132.221,86.7813 C131.425,86.1783 130.721,85.4873 130.11,84.7093 C129.497,83.9313 128.973,83.1183 128.535,82.2693 C128.098,81.4213 127.74,80.5783 127.46,79.7383 C127.18,78.8993 126.961,78.1113 126.804,77.3773 L125.965,77.3773 L124.89,77.3773 C124.522,77.3773 124.159,77.3733 123.801,77.3643 C123.442,77.3563 123.149,77.3513 122.923,77.3513 C122.415,77.3343 121.79,77.3213 121.046,77.3123 C120.303,77.3033 119.625,77.2993 119.013,77.2993 L119.013,81.1283 C119.048,81.9513 119.153,82.7503 119.328,83.5293 C119.503,84.3073 119.59,85.1073 119.59,85.9293 C119.59,86.4363 119.49,86.8643 119.289,87.2143 C119.088,87.5643 118.83,87.8573 118.515,88.0933 C118.2,88.3293 117.86,88.4993 117.492,88.6043 C117.125,88.7093 116.775,88.7613 116.443,88.7613 C115.919,88.7613 115.437,88.6703 115,88.4873 C114.563,88.3033 114.187,88.0493 113.872,87.7263 C113.558,87.4023 113.308,87.0173 113.125,86.5713 C112.941,86.1253 112.849,85.6323 112.849,85.0893 C112.849,84.7053 112.866,84.3293 112.902,83.9623 C112.937,83.5953 112.971,83.2533 113.007,82.9393 L113.007,76.2243 L113.007,70.4913 L113.007,65.4943 L113.007,60.9703 C113.007,59.5093 113.011,58.0753 113.02,56.6683 C113.028,55.2603 113.033,53.8223 113.033,52.3523 C112.945,52.1083 112.863,51.7673 112.784,51.3293 C112.705,50.8923 112.665,50.4823 112.665,50.0973 C112.665,49.7293 112.722,49.3623 112.836,48.9953 C112.949,48.6283 113.125,48.3003 113.361,48.0113 C113.597,47.7233 113.889,47.4913 114.24,47.3163 C114.589,47.1413 114.991,47.0543 115.446,47.0543 C116.181,47.0543 116.924,47.0973 117.676,47.1853 C118.427,47.2733 119.276,47.3163 120.22,47.3163 C121.007,47.3163 121.794,47.2773 122.581,47.1983 C123.368,47.1203 124.208,47.0723 125.099,47.0543 C127.74,47.0543 130.131,47.3163 132.274,47.8413 C134.416,48.3653 136.243,49.1783 137.756,50.2803 C139.269,51.3823 140.436,52.7853 141.258,54.4913 C142.08,56.1963 142.491,58.2283 142.491,60.5893 C142.491,62.8283 142.18,64.8173 141.559,66.5573 C140.939,68.2973 140.143,69.8143 139.172,71.1083 C138.202,72.4033 137.118,73.4823 135.92,74.3473 C134.722,75.2133 133.554,75.8743 132.418,76.3283 C132.575,77.2723 132.824,78.1603 133.165,78.9903 C133.507,79.8213 133.944,80.5513 134.477,81.1813 C135.01,81.8113 135.635,82.3083 136.353,82.6763 C137.069,83.0433 137.874,83.2273 138.766,83.2273 C139.43,83.2273 140.038,83.1223 140.589,82.9123 C141.14,82.7023 141.616,82.2923 142.019,81.6793 C142.264,81.3303 142.56,81.0193 142.91,80.7483 C143.26,80.4773 143.706,80.3413 144.248,80.3413 C145.193,80.3413 145.927,80.6043 146.452,81.1283 C146.976,81.6533 147.239,82.3183 147.239,83.1223 C147.239,83.8743 147.024,84.5913 146.596,85.2733 M99.639,61.7563 C99.149,59.8773 98.402,58.2203 97.396,56.7863 C96.391,55.3523 95.123,54.2153 93.593,53.3753 C92.062,52.5363 90.248,52.1173 88.15,52.1173 C86.173,52.1173 84.416,52.4933 82.877,53.2453 C81.338,53.9963 80.04,55.0543 78.982,56.4193 C77.923,57.7823 77.119,59.4223 76.568,61.3373 C76.018,63.2523 75.742,65.3813 75.742,67.7253 C75.742,69.0363 75.864,70.3343 76.11,71.6193 C76.354,72.9053 76.717,74.1293 77.198,75.2923 C77.679,76.4553 78.274,77.5303 78.982,78.5193 C79.69,79.5073 80.503,80.3643 81.421,81.0893 C82.339,81.8153 83.362,82.3833 84.49,82.7943 C85.618,83.2053 86.838,83.4113 88.15,83.4113 C89.531,83.4113 90.79,83.2053 91.927,82.7943 C93.063,82.3833 94.086,81.8153 94.996,81.0893 C95.905,80.3643 96.697,79.5073 97.37,78.5193 C98.043,77.5303 98.603,76.4553 99.049,75.2923 C99.495,74.1293 99.827,72.9053 100.046,71.6193 C100.264,70.3343 100.374,69.0363 100.374,67.7253 C100.374,65.6263 100.128,63.6373 99.639,61.7563 M105.095,76.0003 C104.238,78.5633 103.014,80.7883 101.423,82.6763 C99.831,84.5653 97.908,86.0513 95.652,87.1363 C93.396,88.2203 90.869,88.7613 88.071,88.7613 C86.218,88.7613 84.477,88.5173 82.851,88.0273 C81.225,87.5383 79.733,86.8383 78.379,85.9293 C77.023,85.0203 75.812,83.9313 74.745,82.6633 C73.679,81.3953 72.773,79.9833 72.031,78.4273 C71.287,76.8703 70.723,75.1913 70.339,73.3903 C69.954,71.5893 69.762,69.7013 69.762,67.7253 C69.762,64.6113 70.203,61.7703 71.086,59.1993 C71.969,56.6283 73.219,54.4163 74.838,52.5623 C76.454,50.7093 78.405,49.2713 80.687,48.2483 C82.969,47.2253 85.5,46.7133 88.281,46.7133 C91.219,46.7133 93.811,47.2253 96.058,48.2483 C98.305,49.2713 100.194,50.7093 101.725,52.5623 C103.255,54.4163 104.413,56.6283 105.2,59.1993 C105.987,61.7703 106.38,64.6113 106.38,67.7253 C106.38,70.6803 105.952,73.4383 105.095,76.0003 M58.505,73.1803 C58.024,72.3413 57.43,71.6643 56.722,71.1473 C56.014,70.6323 55.248,70.2643 54.427,70.0453 C53.604,69.8273 52.852,69.7173 52.171,69.7173 C51.558,69.7173 50.934,69.7263 50.295,69.7443 C49.657,69.7623 48.927,69.7833 48.105,69.8103 C47.283,69.8363 46.326,69.8623 45.233,69.8883 C44.139,69.9153 42.841,69.9363 41.337,69.9543 L41.337,75.1483 C41.337,76.5123 41.341,77.6533 41.35,78.5713 C41.359,79.4893 41.363,80.2463 41.363,80.8403 L41.363,82.5193 C41.783,82.5893 42.212,82.6593 42.649,82.7293 C43.086,82.7993 43.589,82.8603 44.157,82.9123 C44.725,82.9643 45.386,83.0083 46.137,83.0433 C46.889,83.0783 47.781,83.0963 48.813,83.0963 C50.002,83.0963 51.213,83.0263 52.446,82.8863 C53.679,82.7463 54.798,82.4403 55.804,81.9683 C56.809,81.4963 57.631,80.8093 58.27,79.9093 C58.907,79.0083 59.227,77.8063 59.227,76.3023 C59.227,75.0613 58.986,74.0203 58.505,73.1803 M55.948,55.7893 C55.65,55.0193 55.183,54.3943 54.545,53.9133 C53.906,53.4333 53.093,53.0833 52.105,52.8643 C51.117,52.6453 49.941,52.5363 48.577,52.5363 C48.069,52.5363 47.244,52.5403 46.098,52.5503 C44.953,52.5593 43.374,52.6063 41.363,52.6943 L41.363,52.7463 C41.363,52.7813 41.368,52.8123 41.377,52.8383 C41.385,52.8643 41.39,52.8953 41.39,52.9303 C41.424,54.7313 41.438,56.5593 41.429,58.4123 C41.42,60.2663 41.398,62.2163 41.363,64.2623 L41.363,64.6033 C42.01,64.6903 42.666,64.7643 43.33,64.8253 C43.995,64.8873 44.59,64.9183 45.114,64.9183 C47.195,64.9183 48.953,64.8393 50.387,64.6813 C51.821,64.5243 52.984,64.2133 53.875,63.7503 C54.768,63.2873 55.41,62.6443 55.804,61.8223 C56.197,61.0003 56.394,59.9253 56.394,58.5953 C56.394,57.4943 56.245,56.5593 55.948,55.7893 M64.408,80.4333 C63.997,81.8413 63.415,83.0303 62.663,84.0013 C61.912,84.9713 61.002,85.7543 59.935,86.3483 C58.868,86.9433 57.675,87.4023 56.354,87.7263 C55.034,88.0493 53.601,88.2643 52.052,88.3683 C50.505,88.4733 48.883,88.5263 47.187,88.5263 C46.889,88.5263 46.469,88.5083 45.928,88.4733 C45.386,88.4383 44.79,88.3903 44.144,88.3293 C43.497,88.2683 42.832,88.1943 42.15,88.1063 C41.468,88.0183 40.839,87.9223 40.261,87.8173 C39.824,88.0103 39.23,88.1063 38.478,88.1063 C37.533,88.1063 36.777,87.9453 36.209,87.6213 C35.64,87.2973 35.304,86.7693 35.199,86.0343 C35.129,85.5623 35.142,85.0593 35.238,84.5253 C35.334,83.9923 35.426,83.5153 35.514,83.0963 C35.549,81.2603 35.571,79.3933 35.58,77.4963 C35.588,75.5983 35.583,73.5313 35.566,71.2923 C35.549,69.0533 35.531,66.5793 35.514,63.8683 C35.496,61.1583 35.487,58.0713 35.487,54.6083 L35.173,51.0673 C35.173,50.3333 35.208,49.7293 35.278,49.2573 C35.347,48.7853 35.492,48.4093 35.71,48.1293 C35.929,47.8503 36.235,47.6573 36.629,47.5533 C37.022,47.4473 37.533,47.3953 38.163,47.3953 C39.038,47.3953 39.903,47.3823 40.76,47.3553 C41.617,47.3293 42.482,47.2993 43.357,47.2643 C44.248,47.2293 45.128,47.1813 45.993,47.1203 C46.859,47.0583 47.755,47.0273 48.682,47.0273 C49.294,47.0273 50.059,47.0453 50.977,47.0803 C51.895,47.1163 52.857,47.2423 53.863,47.4603 C54.868,47.6793 55.873,48.0163 56.88,48.4703 C57.884,48.9253 58.785,49.5723 59.581,50.4113 C60.377,51.2513 61.024,52.3133 61.522,53.5993 C62.021,54.8843 62.27,56.4623 62.27,58.3333 C62.27,59.9423 61.937,61.4203 61.273,62.7673 C60.608,64.1133 59.761,65.2853 58.728,66.2813 C59.165,66.4573 59.585,66.6573 59.988,66.8853 C60.39,67.1123 60.753,67.3443 61.077,67.5803 C61.4,67.8163 61.679,68.0433 61.916,68.2623 C62.152,68.4813 62.331,68.6603 62.453,68.8003 C63.205,69.7263 63.821,70.7713 64.303,71.9343 C64.783,73.0983 65.024,74.2473 65.024,75.3843 C65.024,77.3423 64.818,79.0263 64.408,80.4333" id="Fill-11"></path>
                <path d="M101.1785,102.5451 C101.0355,102.9961 100.7055,103.4641 100.1915,103.9511 C99.3175,105.3111 98.4455,106.6661 97.5725,108.0181 C96.6995,109.3701 95.8665,110.6721 95.0725,111.9241 C94.2785,113.1761 93.5375,114.3631 92.8505,115.4871 C92.1645,116.6101 91.5775,117.6221 91.0905,118.5241 C91.0055,119.3541 90.9655,120.2761 90.9725,121.2931 C90.9805,122.3091 91.0085,123.3711 91.0585,124.4791 C91.1085,125.5881 91.1625,126.7161 91.2195,127.8591 C91.2765,129.0051 91.3055,130.1131 91.3055,131.1871 C91.3055,131.4721 91.2665,131.7511 91.1875,132.0241 C91.1085,132.2961 90.9765,132.5311 90.7905,132.7311 C90.6045,132.9321 90.3465,133.0931 90.0185,133.2141 C89.6885,133.3361 89.2815,133.3971 88.7945,133.3971 C88.4085,133.3971 88.0605,133.3401 87.7535,133.2251 C87.4455,133.1101 87.1775,132.9571 86.9485,132.7641 C86.7195,132.5701 86.5445,132.3451 86.4235,132.0881 C86.3015,131.8301 86.2405,131.5591 86.2405,131.2721 C86.2405,130.7571 86.2475,130.2961 86.2625,129.8881 C86.2765,129.4801 86.2945,129.0581 86.3155,128.6221 C86.3375,128.1851 86.3585,127.7021 86.3795,127.1731 C86.4015,126.6431 86.4155,125.9921 86.4235,125.2201 C86.4305,124.4471 86.4305,123.5181 86.4235,122.4301 C86.4155,121.3431 86.3985,120.0261 86.3695,118.4811 C85.3245,116.7211 84.3735,115.1431 83.5145,113.7481 C82.6565,112.3531 81.8625,111.0841 81.1325,109.9391 C80.4035,108.7941 79.7195,107.7461 79.0825,106.7941 C78.4455,105.8431 77.8275,104.9381 77.2265,104.0801 C76.8545,103.5361 76.5465,103.0491 76.3045,102.6211 C76.0595,102.1911 75.9385,101.8041 75.9385,101.4611 C75.9385,100.6461 76.1855,100.0311 76.6795,99.6161 C77.1735,99.2011 77.8195,98.9931 78.6215,98.9931 C78.9355,98.9931 79.2255,99.0861 79.4905,99.2721 C79.7555,99.4581 79.9985,99.6981 80.2205,99.9911 C80.4425,100.2841 80.6455,100.6141 80.8325,100.9791 C81.0175,101.3431 81.1825,101.7051 81.3255,102.0631 C81.7985,103.0071 82.3055,103.9231 82.8495,104.8091 C83.3935,105.6971 83.9545,106.5731 84.5345,107.4391 C85.1145,108.3041 85.7045,109.1771 86.3055,110.0571 C86.9055,110.9371 87.4925,111.8351 88.0655,112.7501 L88.7515,113.8881 L89.4165,112.7501 C91.0195,110.2761 92.4035,108.1011 93.5695,106.2261 C94.7365,104.3521 95.6055,102.8641 96.1775,101.7621 L96.1565,101.7621 C96.2985,101.3901 96.4495,101.0361 96.6065,100.7001 C96.7635,100.3631 96.9435,100.0701 97.1435,99.8191 C97.3435,99.5701 97.5725,99.3691 97.8305,99.2191 C98.0875,99.0681 98.3955,98.9931 98.7525,98.9931 C99.0675,98.9931 99.3825,99.0261 99.6975,99.0901 C100.0125,99.1541 100.2945,99.2791 100.5455,99.4651 C100.7955,99.6511 100.9985,99.9051 101.1565,100.2271 C101.3145,100.5491 101.3925,100.9681 101.3925,101.4831 C101.3925,101.7401 101.3215,102.0951 101.1785,102.5451 M76.4945,131.7011 C76.4305,132.0301 76.3125,132.3211 76.1405,132.5701 C75.9685,132.8211 75.7325,133.0181 75.4315,133.1611 C75.1315,133.3041 74.7595,133.3751 74.3155,133.3751 C73.7435,133.3751 73.2715,133.2571 72.8995,133.0221 C72.5275,132.7851 72.2235,132.4961 71.9875,132.1521 C71.7515,131.8091 71.5695,131.4371 71.4405,131.0361 C71.3115,130.6351 71.2115,130.2631 71.1395,129.9201 C70.8675,128.9191 70.5605,127.8061 70.2165,126.5821 C69.8735,125.3601 69.5085,124.0761 69.1225,122.7301 C68.7365,121.3861 68.3355,120.0151 67.9205,118.6201 C67.5055,117.2251 67.0945,115.8591 66.6865,114.5211 C66.2785,113.1831 65.8775,111.9131 65.4845,110.7111 C65.0915,109.5101 64.7225,108.4221 64.3795,107.4491 C63.8355,108.9661 63.3415,110.5011 62.8985,112.0531 C62.4545,113.6061 62.0155,115.1651 61.5785,116.7321 C61.1415,118.2981 60.6915,119.8651 60.2265,121.4321 C59.7615,122.9991 59.2425,124.5551 58.6705,126.1001 C58.5555,126.3861 58.4745,126.7011 58.4235,127.0441 C58.3735,127.3881 58.3485,127.6741 58.3485,127.9031 C58.3485,128.3031 58.2695,128.6321 58.1125,128.8901 C57.9555,129.1471 57.7505,129.3511 57.5005,129.5011 C57.2505,129.6521 56.9675,129.7591 56.6535,129.8241 C56.3385,129.8881 56.0225,129.9201 55.7095,129.9201 C55.1795,129.9201 54.7535,129.8451 54.4315,129.6951 C54.1095,129.5451 53.8525,129.3411 53.6585,129.0831 C53.4655,128.8261 53.3225,128.5361 53.2305,128.2141 C53.1365,127.8921 53.0615,127.5591 53.0045,127.2161 C52.9755,127.0161 52.9435,126.8191 52.9075,126.6261 C52.8715,126.4321 52.8255,126.2361 52.7685,126.0361 C52.5255,125.1771 52.2565,124.2291 51.9635,123.1921 C51.6705,122.1551 51.3585,121.0741 51.0305,119.9511 C50.7005,118.8271 50.3605,117.6901 50.0105,116.5381 C49.6595,115.3871 49.3095,114.2631 48.9585,113.1691 C48.6075,112.0741 48.2645,111.0331 47.9285,110.0461 C47.5925,109.0591 47.2815,108.1721 46.9955,107.3851 C46.6375,108.3581 46.2685,109.4991 45.8895,110.8081 C45.5105,112.1171 45.1245,113.5051 44.7315,114.9721 C44.3375,116.4381 43.9435,117.9441 43.5505,119.4901 C43.1575,121.0351 42.7705,122.5411 42.3915,124.0071 C42.0125,125.4741 41.6435,126.8581 41.2865,128.1601 C40.9285,129.4621 40.5915,130.5931 40.2775,131.5511 C39.9485,132.1091 39.6225,132.5531 39.3015,132.8821 C38.9785,133.2111 38.5035,133.3751 37.8735,133.3751 C37.5015,133.3751 37.1615,133.3141 36.8545,133.1931 C36.5465,133.0711 36.2785,132.9031 36.0495,132.6891 C35.8205,132.4741 35.6415,132.2271 35.5125,131.9481 C35.3835,131.6691 35.3195,131.3731 35.3195,131.0571 C35.3195,130.8001 35.3555,130.5781 35.4275,130.3921 C35.5415,130.0921 35.7385,129.4841 36.0175,128.5681 C36.2965,127.6521 36.6395,126.5181 37.0475,125.1661 C37.4555,123.8141 37.9135,122.2871 38.4205,120.5841 C38.9285,118.8811 39.4645,117.0821 40.0305,115.1871 C40.5955,113.2911 41.1755,111.3481 41.7685,109.3591 C42.3625,107.3711 42.9455,105.4111 43.5175,103.4791 L43.5175,103.5001 C43.6175,103.1001 43.7295,102.6951 43.8505,102.2881 C43.9725,101.8801 44.0935,101.5041 44.2155,101.1611 C44.3375,100.8181 44.4595,100.5211 44.5805,100.2701 C44.7015,100.0201 44.8065,99.8511 44.8915,99.7661 C45.1205,99.5231 45.4285,99.3301 45.8145,99.1861 C46.2005,99.0441 46.5795,98.9721 46.9515,98.9721 C47.4525,98.9721 47.8675,99.0611 48.1965,99.2401 C48.5265,99.4191 48.8085,99.6841 49.0445,100.0341 C49.2805,100.3851 49.4885,100.8181 49.6675,101.3331 C49.8455,101.8481 50.0355,102.4351 50.2355,103.0931 L55.6225,120.1971 L55.9225,121.0991 C56.6955,118.7241 57.3505,116.6001 57.8875,114.7251 C58.4235,112.8511 58.8885,111.1801 59.2825,109.7131 C59.6755,108.2471 60.0185,106.9551 60.3125,105.8391 C60.6055,104.7231 60.8945,103.7221 61.1815,102.8351 C61.3245,102.3921 61.4675,101.9411 61.6105,101.4831 C61.7535,101.0251 61.9355,100.6101 62.1575,100.2381 C62.3795,99.8661 62.6665,99.5621 63.0165,99.3261 C63.3665,99.0901 63.8355,98.9721 64.4215,98.9721 C64.9225,98.9721 65.3585,99.0471 65.7315,99.1971 C66.1025,99.3471 66.3965,99.6871 66.6115,100.2171 C66.7115,100.4601 66.8115,100.7101 66.9125,100.9681 C67.0125,101.2251 67.1375,101.5511 67.2875,101.9441 C67.4375,102.3381 67.6205,102.8351 67.8345,103.4361 C68.0485,104.0371 68.3145,104.8021 68.6285,105.7321 C68.9435,106.6621 69.3155,107.7851 69.7445,109.1021 C70.1745,110.4181 70.6855,111.9961 71.2795,113.8341 C71.8725,115.6731 72.5525,117.8041 73.3185,120.2301 C74.0835,122.6551 74.9535,125.4271 75.9255,128.5471 C76.0975,129.0051 76.2365,129.3981 76.3445,129.7271 C76.4515,130.0561 76.5195,130.3641 76.5475,130.6501 C76.5765,131.0221 76.5595,131.3731 76.4945,131.7011" id="Fill-13"></path>
                <path d="M273.4089,102.4046 C273.2659,102.8556 272.9359,103.3246 272.4219,103.8106 C271.5489,105.1696 270.6759,106.5256 269.8029,107.8776 C268.9299,109.2296 268.0969,110.5316 267.3029,111.7836 C266.5089,113.0356 265.7679,114.2226 265.0819,115.3456 C264.3949,116.4696 263.8079,117.4816 263.3209,118.3836 C263.2359,119.2126 263.1959,120.1356 263.2039,121.1516 C263.2109,122.1676 263.2389,123.2306 263.2889,124.3386 C263.3389,125.4476 263.3929,126.5746 263.4509,127.7186 C263.5069,128.8636 263.5359,129.9726 263.5359,131.0456 C263.5359,131.3326 263.4969,131.6116 263.4179,131.8826 C263.3389,132.1546 263.2069,132.3906 263.0209,132.5906 C262.8349,132.7916 262.5769,132.9526 262.2489,133.0746 C261.9189,133.1946 261.5119,133.2566 261.0249,133.2566 C260.6389,133.2566 260.2909,133.1986 259.9839,133.0846 C259.6769,132.9696 259.4079,132.8166 259.1799,132.6226 C258.9499,132.4296 258.7749,132.2046 258.6539,131.9466 C258.5319,131.6896 258.4709,131.4186 258.4709,131.1316 C258.4709,130.6166 258.4779,130.1556 258.4929,129.7476 C258.5069,129.3396 258.5249,128.9176 258.5459,128.4816 C258.5679,128.0446 258.5889,127.5616 258.6099,127.0326 C258.6319,126.5026 258.6459,125.8516 258.6539,125.0796 C258.6609,124.3066 258.6609,123.3766 258.6539,122.2896 C258.6459,121.2016 258.6289,119.8856 258.5999,118.3406 C257.5549,116.5806 256.6039,115.0026 255.7449,113.6076 C254.8869,112.2126 254.0929,110.9436 253.3629,109.7976 C252.6339,108.6536 251.9499,107.6056 251.3139,106.6536 C250.6759,105.7026 250.0579,104.7976 249.4569,103.9386 C249.0849,103.3956 248.7769,102.9086 248.5339,102.4796 C248.2909,102.0506 248.1699,101.6646 248.1699,101.3206 C248.1699,100.5056 248.4159,99.8896 248.9099,99.4756 C249.4039,99.0606 250.0509,98.8526 250.8519,98.8526 C251.1669,98.8526 251.4559,98.9466 251.7209,99.1316 C251.9859,99.3176 252.2289,99.5576 252.4509,99.8506 C252.6729,100.1436 252.8759,100.4736 253.0629,100.8376 C253.2479,101.2026 253.4139,101.5636 253.5569,101.9216 C254.0289,102.8666 254.5359,103.7826 255.0799,104.6686 C255.6239,105.5566 256.1849,106.4326 256.7649,107.2986 C257.3449,108.1636 257.9349,109.0366 258.5359,109.9156 C259.1359,110.7966 259.7229,111.6946 260.2959,112.6096 L260.9819,113.7476 L261.6469,112.6096 C263.2499,110.1346 264.6339,107.9596 265.7999,106.0856 C266.9669,104.2106 267.8359,102.7236 268.4079,101.6216 L268.3869,101.6216 C268.5299,101.2496 268.6799,100.8946 268.8369,100.5586 C268.9949,100.2226 269.1739,99.9286 269.3739,99.6786 C269.5739,99.4286 269.8029,99.2286 270.0609,99.0786 C270.3179,98.9276 270.6259,98.8526 270.9829,98.8526 C271.2979,98.8526 271.6129,98.8846 271.9279,98.9496 C272.2429,99.0136 272.5249,99.1386 272.7759,99.3246 C273.0259,99.5106 273.2289,99.7646 273.3879,100.0866 C273.5449,100.4086 273.6229,100.8276 273.6229,101.3426 C273.6229,101.5996 273.5519,101.9536 273.4089,102.4046 M240.1299,121.9886 C240.1149,121.2166 240.0979,120.5086 240.0759,119.8636 C240.0549,119.2206 240.0289,118.5336 240.0009,117.8036 C240.0009,117.2886 239.9649,116.7696 239.8939,116.2476 C239.8219,115.7256 239.7869,115.1636 239.7869,114.5626 C239.7869,114.3486 239.8329,114.1156 239.9259,113.8656 C240.0189,113.6156 240.1689,113.3796 240.3769,113.1576 C240.5839,112.9356 240.8589,112.7496 241.2029,112.5996 C241.5459,112.4486 241.9749,112.3736 242.4909,112.3736 C243.3349,112.3736 243.9889,112.5706 244.4539,112.9636 C244.9189,113.3576 245.1519,113.8906 245.1519,114.5626 C245.1519,114.8496 245.1439,115.1246 245.1309,115.3896 C245.1159,115.6536 245.1089,115.9366 245.1089,116.2366 C245.0949,116.6946 245.0769,117.2496 245.0549,117.9006 C245.0339,118.5516 245.0159,119.3806 245.0019,120.3896 C244.9869,121.3986 244.9719,122.6216 244.9579,124.0596 C244.9449,125.4976 244.9369,127.2186 244.9369,129.2216 C244.9229,130.0366 244.8159,130.6746 244.6149,131.1316 C244.4139,131.5896 244.1429,131.9296 243.7999,132.1516 C243.4569,132.3736 243.0589,132.5046 242.6089,132.5476 C242.1579,132.5906 241.6889,132.6126 241.2029,132.6126 C240.7879,132.6126 240.3519,132.6346 239.8939,132.6766 C239.4349,132.7196 238.9699,132.7696 238.4989,132.8276 C238.0269,132.8836 237.5649,132.9346 237.1139,132.9776 C236.6639,133.0206 236.2379,133.0416 235.8369,133.0416 C232.7899,133.0416 230.0959,132.5906 227.7569,131.6896 C225.4169,130.7886 223.4539,129.5756 221.8659,128.0516 C220.2769,126.5286 219.0759,124.7616 218.2599,122.7506 C217.4439,120.7406 217.0359,118.6196 217.0359,116.3876 C217.0359,113.4546 217.4579,110.8926 218.3029,108.7036 C219.1469,106.5146 220.3129,104.6906 221.8009,103.2306 C223.2889,101.7716 225.0489,100.6766 227.0809,99.9476 C229.1119,99.2176 231.3229,98.8526 233.7129,98.8526 C234.3279,98.8526 235.0219,98.8636 235.7949,98.8846 C236.5669,98.9056 237.3569,98.9596 238.1659,99.0456 C238.9739,99.1316 239.7719,99.2536 240.5589,99.4106 C241.3459,99.5686 242.0749,99.7756 242.7479,100.0336 C243.2769,100.2336 243.7209,100.5196 244.0789,100.8916 C244.4359,101.2636 244.6149,101.8006 244.6149,102.5016 C244.6149,103.3166 244.4119,103.9716 244.0039,104.4646 C243.5959,104.9586 243.1199,105.2056 242.5759,105.2056 C242.4609,105.2056 242.3119,105.1906 242.1259,105.1626 C241.9399,105.1336 241.7819,105.0846 241.6539,105.0126 C241.0959,104.7116 240.4189,104.4686 239.6249,104.2826 C238.8309,104.0966 238.0119,103.9466 237.1679,103.8316 C236.3239,103.7166 235.5009,103.6386 234.6999,103.5956 C233.8979,103.5526 233.2119,103.5306 232.6389,103.5306 C231.8529,103.5306 231.0439,103.6276 230.2139,103.8216 C229.3839,104.0146 228.5719,104.3186 227.7779,104.7336 C226.9839,105.1486 226.2329,105.6776 225.5249,106.3216 C224.8159,106.9656 224.1979,107.7306 223.6689,108.6176 C223.1389,109.5046 222.7169,110.5246 222.4019,111.6766 C222.0869,112.8276 221.9299,114.1196 221.9299,115.5506 C221.9299,117.2246 222.1269,118.7056 222.5199,119.9926 C222.9129,121.2806 223.4539,122.4006 224.1399,123.3516 C224.8269,124.3026 225.6349,125.1046 226.5649,125.7556 C227.4949,126.4066 228.4999,126.9326 229.5819,127.3326 C230.6609,127.7336 231.7879,128.0196 232.9609,128.1906 C234.1339,128.3626 235.3079,128.4486 236.4809,128.4486 C236.9959,128.4486 237.5789,128.4376 238.2299,128.4166 C238.8809,128.3956 239.5279,128.3276 240.1729,128.2126 C240.1729,126.8106 240.1689,125.6156 240.1619,124.6286 C240.1539,123.6416 240.1439,122.7616 240.1299,121.9886 M206.2489,121.9886 C206.2359,121.2166 206.2169,120.5086 206.1959,119.8636 C206.1749,119.2206 206.1489,118.5336 206.1209,117.8036 C206.1209,117.2886 206.0849,116.7696 206.0139,116.2476 C205.9419,115.7256 205.9059,115.1636 205.9059,114.5626 C205.9059,114.3486 205.9519,114.1156 206.0459,113.8656 C206.1389,113.6156 206.2889,113.3796 206.4959,113.1576 C206.7039,112.9356 206.9799,112.7496 207.3229,112.5996 C207.6659,112.4486 208.0959,112.3736 208.6099,112.3736 C209.4539,112.3736 210.1089,112.5706 210.5739,112.9636 C211.0389,113.3576 211.2719,113.8906 211.2719,114.5626 C211.2719,114.8496 211.2649,115.1246 211.2509,115.3896 C211.2359,115.6536 211.2289,115.9366 211.2289,116.2366 C211.2139,116.6946 211.1969,117.2496 211.1749,117.9006 C211.1529,118.5516 211.1349,119.3806 211.1209,120.3896 C211.1069,121.3986 211.0929,122.6216 211.0789,124.0596 C211.0639,125.4976 211.0569,127.2186 211.0569,129.2216 C211.0429,130.0366 210.9349,130.6746 210.7349,131.1316 C210.5349,131.5896 210.2629,131.9296 209.9199,132.1516 C209.5759,132.3736 209.1789,132.5046 208.7279,132.5476 C208.2779,132.5906 207.8089,132.6126 207.3229,132.6126 C206.9079,132.6126 206.4709,132.6346 206.0139,132.6766 C205.5559,132.7196 205.0909,132.7696 204.6189,132.8276 C204.1459,132.8836 203.6849,132.9346 203.2339,132.9776 C202.7839,133.0206 202.3569,133.0416 201.9569,133.0416 C198.9099,133.0416 196.2159,132.5906 193.8769,131.6896 C191.5369,130.7886 189.5739,129.5756 187.9849,128.0516 C186.3969,126.5286 185.1949,124.7616 184.3799,122.7506 C183.5639,120.7406 183.1569,118.6196 183.1569,116.3876 C183.1569,113.4546 183.5779,110.8926 184.4229,108.7036 C185.2669,106.5146 186.4329,104.6906 187.9209,103.2306 C189.4089,101.7716 191.1689,100.6766 193.2009,99.9476 C195.2319,99.2176 197.4429,98.8526 199.8319,98.8526 C200.4469,98.8526 201.1419,98.8636 201.9149,98.8846 C202.6869,98.9056 203.4769,98.9596 204.2859,99.0456 C205.0939,99.1316 205.8919,99.2536 206.6789,99.4106 C207.4659,99.5686 208.1959,99.7756 208.8679,100.0336 C209.3969,100.2336 209.8409,100.5196 210.1989,100.8916 C210.5559,101.2636 210.7349,101.8006 210.7349,102.5016 C210.7349,103.3166 210.5309,103.9716 210.1239,104.4646 C209.7159,104.9586 209.2399,105.2056 208.6959,105.2056 C208.5819,105.2056 208.4309,105.1906 208.2459,105.1626 C208.0589,105.1336 207.9019,105.0846 207.7729,105.0126 C207.2149,104.7116 206.5399,104.4686 205.7449,104.2826 C204.9509,104.0966 204.1319,103.9466 203.2879,103.8316 C202.4429,103.7166 201.6209,103.6386 200.8199,103.5956 C200.0179,103.5526 199.3309,103.5306 198.7599,103.5306 C197.9719,103.5306 197.1639,103.6276 196.3339,103.8216 C195.5049,104.0146 194.6929,104.3186 193.8979,104.7336 C193.1039,105.1486 192.3529,105.6776 191.6439,106.3216 C190.9369,106.9656 190.3169,107.7306 189.7889,108.6176 C189.2589,109.5046 188.8369,110.5246 188.5219,111.6766 C188.2069,112.8276 188.0499,114.1196 188.0499,115.5506 C188.0499,117.2246 188.2469,118.7056 188.6399,119.9926 C189.0329,121.2806 189.5739,122.4006 190.2609,123.3516 C190.9469,124.3026 191.7559,125.1046 192.6859,125.7556 C193.6159,126.4066 194.6209,126.9326 195.7009,127.3326 C196.7809,127.7336 197.9079,128.0196 199.0809,128.1906 C200.2549,128.3626 201.4279,128.4486 202.6009,128.4486 C203.1159,128.4486 203.6989,128.4376 204.3499,128.4166 C205.0009,128.3956 205.6489,128.3276 206.2929,128.2126 C206.2929,126.8106 206.2889,125.6156 206.2819,124.6286 C206.2749,123.6416 206.2629,122.7616 206.2489,121.9886 M173.5719,111.1396 C173.1709,109.6016 172.5589,108.2456 171.7369,107.0726 C170.9139,105.8996 169.8759,104.9696 168.6239,104.2826 C167.3729,103.5956 165.8879,103.2526 164.1709,103.2526 C162.5539,103.2526 161.1159,103.5606 159.8579,104.1756 C158.5979,104.7906 157.5359,105.6556 156.6699,106.7726 C155.8049,107.8886 155.1469,109.2296 154.6959,110.7966 C154.2449,112.3626 154.0189,114.1046 154.0189,116.0226 C154.0189,117.0956 154.1189,118.1576 154.3199,119.2096 C154.5199,120.2616 154.8169,121.2626 155.2109,122.2146 C155.6039,123.1656 156.0909,124.0456 156.6699,124.8546 C157.2489,125.6626 157.9149,126.3636 158.6659,126.9576 C159.4169,127.5516 160.2539,128.0166 161.1769,128.3526 C162.0999,128.6886 163.0979,128.8566 164.1709,128.8566 C165.3009,128.8566 166.3309,128.6886 167.2619,128.3526 C168.1919,128.0166 169.0289,127.5516 169.7729,126.9576 C170.5169,126.3636 171.1639,125.6626 171.7149,124.8546 C172.2659,124.0456 172.7229,123.1656 173.0889,122.2146 C173.4539,121.2626 173.7249,120.2616 173.9039,119.2096 C174.0829,118.1576 174.1719,117.0956 174.1719,116.0226 C174.1719,114.3056 173.9719,112.6776 173.5719,111.1396 M178.0359,122.7936 C177.3339,124.8896 176.3319,126.7106 175.0309,128.2556 C173.7289,129.8006 172.1549,131.0176 170.3099,131.9046 C168.4629,132.7916 166.3959,133.2346 164.1069,133.2346 C162.5899,133.2346 161.1669,133.0346 159.8359,132.6346 C158.5049,132.2336 157.2849,131.6606 156.1769,130.9166 C155.0679,130.1736 154.0769,129.2826 153.2039,128.2446 C152.3309,127.2076 151.5909,126.0526 150.9819,124.7786 C150.3739,123.5056 149.9129,122.1316 149.5989,120.6586 C149.2829,119.1846 149.1269,117.6396 149.1269,116.0226 C149.1269,113.4756 149.4869,111.1506 150.2099,109.0476 C150.9319,106.9436 151.9559,105.1336 153.2789,103.6176 C154.6029,102.1016 156.1979,100.9236 158.0649,100.0866 C159.9319,99.2496 162.0039,98.8316 164.2779,98.8316 C166.6819,98.8316 168.8029,99.2496 170.6419,100.0866 C172.4799,100.9236 174.0259,102.1016 175.2779,103.6176 C176.5299,105.1336 177.4779,106.9436 178.1209,109.0476 C178.7649,111.1506 179.0879,113.4756 179.0879,116.0226 C179.0879,118.4406 178.7369,120.6976 178.0359,122.7936 M139.4659,109.9806 C138.9009,108.4006 138.0709,107.1376 136.9769,106.1926 C135.8819,105.2486 134.5369,104.5826 132.9419,104.1966 C131.3459,103.8106 129.5109,103.6176 127.4359,103.6176 C127.1639,103.6176 126.8319,103.6246 126.4389,103.6386 C126.0449,103.6526 125.6339,103.6676 125.2039,103.6816 C124.7749,103.6966 124.3489,103.7166 123.9279,103.7456 C123.5049,103.7746 123.1299,103.7956 122.8009,103.8106 L122.9299,127.8906 C123.2299,127.9766 123.5909,128.0446 124.0139,128.0946 C124.4349,128.1446 124.8609,128.1836 125.2899,128.2126 C125.7199,128.2416 126.1239,128.2596 126.5029,128.2666 C126.8819,128.2736 127.1789,128.2766 127.3939,128.2766 C129.1679,128.2766 130.7199,128.0556 132.0509,127.6126 C133.3819,127.1686 134.5219,126.5886 135.4739,125.8736 C136.4259,125.1586 137.2159,124.3496 137.8459,123.4476 C138.4749,122.5466 138.9719,121.6386 139.3369,120.7226 C139.7019,119.8066 139.9559,118.9266 140.0999,118.0826 C140.2419,117.2386 140.3139,116.5156 140.3139,115.9156 C140.3139,113.5396 140.0309,111.5616 139.4659,109.9806 M144.8739,118.6516 C144.6239,120.0326 144.2129,121.3986 143.6409,122.7506 C143.0679,124.1026 142.3239,125.3976 141.4089,126.6346 C140.4929,127.8726 139.3619,128.9636 138.0169,129.9086 C136.6719,130.8526 135.1019,131.6076 133.3069,132.1726 C131.5099,132.7376 129.4539,133.0206 127.1359,133.0206 C126.5919,133.0206 126.0529,132.9946 125.5149,132.9456 C124.9789,132.8946 124.4389,132.8376 123.8949,132.7736 C123.3509,132.7096 122.8039,132.6516 122.2529,132.6016 C121.7019,132.5516 121.1409,132.5266 120.5689,132.5266 C119.6959,132.5266 119.0729,132.3266 118.7019,131.9256 C118.3289,131.5246 118.1439,130.9166 118.1439,130.1016 C118.1439,129.4436 118.1719,128.7996 118.2289,128.1706 C118.2859,127.5406 118.3149,126.8036 118.3149,125.9586 C118.3149,122.1536 118.3049,118.3406 118.2829,114.5206 C118.2609,110.6996 118.1929,106.8366 118.0789,102.9306 C117.9209,102.6296 117.7819,102.3006 117.6609,101.9436 C117.5389,101.5856 117.4779,101.2776 117.4779,101.0196 C117.4779,100.4056 117.6459,99.8866 117.9819,99.4636 C118.3189,99.0426 118.8949,98.8316 119.7099,98.8316 C120.1249,98.8316 120.5329,98.8846 120.9339,98.9916 C121.3339,99.0996 121.7629,99.1526 122.2209,99.1526 C123.2229,99.1526 124.2169,99.0996 125.2039,98.9916 C126.1919,98.8846 127.2009,98.8316 128.2309,98.8316 C130.3339,98.8316 132.2189,99.0346 133.8859,99.4426 C135.5529,99.8506 137.0159,100.4156 138.2749,101.1376 C139.5339,101.8616 140.6069,102.7196 141.4939,103.7136 C142.3809,104.7086 143.0999,105.7956 143.6509,106.9756 C144.2019,108.1566 144.6059,109.4086 144.8639,110.7316 C145.1209,112.0556 145.2499,113.3976 145.2499,114.7556 C145.2499,115.9726 145.1249,117.2706 144.8739,118.6516" id="Fill-15"></path>
                <path d="M283.9556,93.3474 L284.9406,93.3474 C285.6196,93.3474 285.9596,92.9844 285.9596,92.2574 C285.9596,91.4954 285.6196,91.1144 284.9406,91.1144 L283.9556,91.1144 L283.9556,93.3474 Z M283.0416,96.6844 L283.0416,90.5374 C283.0416,90.4544 283.0706,90.3804 283.1296,90.3154 C283.1876,90.2504 283.2636,90.2184 283.3576,90.2184 L284.9406,90.2184 C286.2296,90.2184 286.8746,90.8684 286.8746,92.1694 C286.8746,93.1654 286.4816,93.7694 285.6966,93.9804 L286.8386,96.4064 C286.8506,96.4414 286.8566,96.4814 286.8566,96.5284 C286.8566,96.6454 286.8036,96.7554 286.6986,96.8604 C286.5926,96.9644 286.4756,97.0164 286.3466,97.0164 C286.2296,97.0164 286.1176,96.9124 286.0126,96.7024 L284.7996,94.1214 L283.9556,94.1214 L283.9556,96.6874 C283.9556,96.9104 283.8086,97.0214 283.5156,97.0214 C283.1996,97.0214 283.0416,96.9094 283.0416,96.6844 L283.0416,96.6844 Z M280.2286,93.7864 C280.2286,95.1834 280.6416,96.3294 281.4676,97.2254 C282.2946,98.1214 283.3756,98.5694 284.7116,98.5694 C286.0596,98.5694 287.1616,98.1184 288.0166,97.2164 C288.8726,96.3144 289.3006,95.1474 289.3006,93.7164 C289.3006,92.3104 288.8876,91.1564 288.0606,90.2534 C287.2346,89.3504 286.1536,88.8994 284.8166,88.8994 C283.4686,88.8994 282.3666,89.3534 281.5116,90.2624 C280.6556,91.1704 280.2286,92.3454 280.2286,93.7864 L280.2286,93.7864 Z M279.3666,93.7864 C279.3666,92.8434 279.5336,91.9914 279.8676,91.2314 C280.2016,90.4704 280.6386,89.8634 281.1776,89.4084 C281.7166,88.9554 282.2996,88.6074 282.9266,88.3654 C283.5536,88.1234 284.1836,88.0024 284.8166,88.0024 C285.4496,88.0024 286.0766,88.1234 286.6986,88.3654 C287.3196,88.6074 287.8906,88.9554 288.4126,89.4094 C288.9336,89.8634 289.3556,90.4644 289.6786,91.2134 C290.0006,91.9624 290.1616,92.7974 290.1616,93.7164 C290.1616,94.6544 289.9946,95.5014 289.6606,96.2574 C289.3266,97.0134 288.8896,97.6174 288.3506,98.0684 C287.8116,98.5194 287.2286,98.8654 286.6016,99.1054 C285.9746,99.3454 285.3446,99.4664 284.7116,99.4664 C284.0786,99.4664 283.4516,99.3454 282.8306,99.1054 C282.2086,98.8654 281.6376,98.5194 281.1156,98.0684 C280.5946,97.6174 280.1726,97.0194 279.8506,96.2744 C279.5276,95.5304 279.3666,94.7014 279.3666,93.7864 L279.3666,93.7864 Z" id="Fill-17"></path>
            </g>
        </g>
    </g>
</svg>